<?xml version="1.0" encoding="UTF-8" standalone="no"?>
<!DOCTYPE svg PUBLIC "-//W3C//DTD SVG 1.1//EN"
 "http://www.w3.org/Graphics/SVG/1.1/DTD/svg11.dtd">
<!-- Generated by graphviz version 14.1.1 (20251213.1925)
 -->
<!-- Title: G Pages: 1 -->
<svg width="1166pt" height="1059pt"
 viewBox="0.00 0.00 1166.00 1059.00" xmlns="http://www.w3.org/2000/svg" xmlns:xlink="http://www.w3.org/1999/xlink">
<g id="graph0" class="graph" transform="scale(1 1) rotate(0) translate(14.4 1044.65)">
<title>G</title>
<polygon fill="white" stroke="none" points="-14.4,14.4 -14.4,-1044.65 1151.4,-1044.65 1151.4,14.4 -14.4,14.4"/>
<text xml:space="preserve" text-anchor="middle" x="568.5" y="-6.45" font-family="Helvetica,sans-Serif" font-size="14.00">Integrated Hospital Management System</text>
<!-- Hospital -->
<g id="node1" class="node">
<title>Hospital</title>
<polygon fill="none" stroke="black" points="0,-361.62 0,-383.38 211.5,-383.38 211.5,-361.62 0,-361.62"/>
<text xml:space="preserve" text-anchor="start" x="81.38" y="-368.07" font-family="Helvetica,sans-Serif" font-style="italic" font-size="14.00">Hospital</text>
<polygon fill="none" stroke="black" points="0,-333.88 0,-361.62 211.5,-361.62 211.5,-333.88 0,-333.88"/>
<text xml:space="preserve" text-anchor="start" x="6" y="-343.32" font-family="Helvetica,sans-Serif" font-size="14.00">PK hospital_id </text>
<text xml:space="preserve" text-anchor="start" x="96" y="-343.32" font-family="Helvetica,sans-Serif" font-size="14.00" fill="#999999">int() NOT NULL</text>
<polygon fill="none" stroke="black" points="0,-306.12 0,-333.88 211.5,-333.88 211.5,-306.12 0,-306.12"/>
<text xml:space="preserve" text-anchor="start" x="6" y="-315.57" font-family="Helvetica,sans-Serif" font-size="14.00">name </text>
<text xml:space="preserve" text-anchor="start" x="44.25" y="-315.57" font-family="Helvetica,sans-Serif" font-size="14.00" fill="#999999">varchar(100) NOT NULL</text>
<polygon fill="none" stroke="black" points="0,-278.38 0,-306.12 211.5,-306.12 211.5,-278.38 0,-278.38"/>
<text xml:space="preserve" text-anchor="start" x="6" y="-287.82" font-family="Helvetica,sans-Serif" font-size="14.00">address </text>
<text xml:space="preserve" text-anchor="start" x="57.75" y="-287.82" font-family="Helvetica,sans-Serif" font-size="14.00" fill="#999999">varchar(200) NOT NULL</text>
</g>
<!-- Department -->
<g id="node2" class="node">
<title>Department</title>
<polygon fill="none" stroke="black" points="247.5,-388.5 247.5,-410.25 478.5,-410.25 478.5,-388.5 247.5,-388.5"/>
<text xml:space="preserve" text-anchor="start" x="327.38" y="-394.95" font-family="Helvetica,sans-Serif" font-style="italic" font-size="14.00">Department</text>
<polygon fill="none" stroke="black" points="247.5,-360.75 247.5,-388.5 478.5,-388.5 478.5,-360.75 247.5,-360.75"/>
<text xml:space="preserve" text-anchor="start" x="253.5" y="-370.2" font-family="Helvetica,sans-Serif" font-size="14.00">PK department_id </text>
<text xml:space="preserve" text-anchor="start" x="366" y="-370.2" font-family="Helvetica,sans-Serif" font-size="14.00" fill="#999999">int() NOT NULL</text>
<polygon fill="none" stroke="black" points="247.5,-333 247.5,-360.75 478.5,-360.75 478.5,-333 247.5,-333"/>
<text xml:space="preserve" text-anchor="start" x="253.5" y="-342.45" font-family="Helvetica,sans-Serif" font-size="14.00">FK hospital_id </text>
<text xml:space="preserve" text-anchor="start" x="342.75" y="-342.45" font-family="Helvetica,sans-Serif" font-size="14.00" fill="#999999">int()</text>
<polygon fill="none" stroke="black" points="247.5,-305.25 247.5,-333 478.5,-333 478.5,-305.25 247.5,-305.25"/>
<text xml:space="preserve" text-anchor="start" x="253.5" y="-314.7" font-family="Helvetica,sans-Serif" font-size="14.00">name </text>
<text xml:space="preserve" text-anchor="start" x="291.75" y="-314.7" font-family="Helvetica,sans-Serif" font-size="14.00" fill="#999999">varchar(100) NOT NULL</text>
<polygon fill="none" stroke="black" points="247.5,-277.5 247.5,-305.25 478.5,-305.25 478.5,-277.5 247.5,-277.5"/>
<text xml:space="preserve" text-anchor="start" x="253.5" y="-286.95" font-family="Helvetica,sans-Serif" font-size="14.00">coordinator </text>
<text xml:space="preserve" text-anchor="start" x="324.75" y="-286.95" font-family="Helvetica,sans-Serif" font-size="14.00" fill="#999999">varchar(100) NOT NULL</text>
</g>
<!-- Hospital&#45;&gt;Department -->
<g id="edge1" class="edge">
<title>Hospital:hospital_id&#45;&gt;Department:hospital_id</title>
<path fill="none" stroke="black" d="M220.25,-347.65C227.06,-347.48 231.63,-347.16 238.36,-346.99"/>
<polyline fill="none" stroke="black" points="211.5,-347.75 216,-347.7"/>
<polygon fill="black" stroke="black" points="216.95,-352.19 216.85,-343.19 218.65,-343.17 218.75,-352.17 216.95,-352.19"/>
<polyline fill="none" stroke="black" points="216,-347.7 220.5,-347.65"/>
<polygon fill="black" stroke="black" points="238.17,-346.99 247.21,-350.93 243,-346.93 246.83,-346.88 246.83,-346.88 246.83,-346.88 243,-346.93 247.12,-342.83 238.17,-346.99"/>
</g>
<!-- Employee -->
<g id="node4" class="node">
<title>Employee</title>
<polygon fill="none" stroke="black" points="514.5,-501.5 514.5,-523.25 823.5,-523.25 823.5,-501.5 514.5,-501.5"/>
<text xml:space="preserve" text-anchor="start" x="638.62" y="-507.95" font-family="Helvetica,sans-Serif" font-style="italic" font-size="14.00">Employee</text>
<polygon fill="none" stroke="black" points="514.5,-473.75 514.5,-501.5 823.5,-501.5 823.5,-473.75 514.5,-473.75"/>
<text xml:space="preserve" text-anchor="start" x="520.5" y="-483.2" font-family="Helvetica,sans-Serif" font-size="14.00">PK employee_id </text>
<text xml:space="preserve" text-anchor="start" x="623.25" y="-483.2" font-family="Helvetica,sans-Serif" font-size="14.00" fill="#999999">int() NOT NULL</text>
<polygon fill="none" stroke="black" points="514.5,-446 514.5,-473.75 823.5,-473.75 823.5,-446 514.5,-446"/>
<text xml:space="preserve" text-anchor="start" x="520.5" y="-455.45" font-family="Helvetica,sans-Serif" font-size="14.00">FK person_id </text>
<text xml:space="preserve" text-anchor="start" x="604.5" y="-455.45" font-family="Helvetica,sans-Serif" font-size="14.00" fill="#999999">int()</text>
<polygon fill="none" stroke="black" points="514.5,-418.25 514.5,-446 823.5,-446 823.5,-418.25 514.5,-418.25"/>
<text xml:space="preserve" text-anchor="start" x="520.5" y="-427.7" font-family="Helvetica,sans-Serif" font-size="14.00">professional_credentials </text>
<text xml:space="preserve" text-anchor="start" x="669.75" y="-427.7" font-family="Helvetica,sans-Serif" font-size="14.00" fill="#999999">varchar(100) NOT NULL</text>
<polygon fill="none" stroke="black" points="514.5,-390.5 514.5,-418.25 823.5,-418.25 823.5,-390.5 514.5,-390.5"/>
<text xml:space="preserve" text-anchor="start" x="520.5" y="-399.95" font-family="Helvetica,sans-Serif" font-size="14.00">role </text>
<text xml:space="preserve" text-anchor="start" x="546.75" y="-399.95" font-family="Helvetica,sans-Serif" font-size="14.00" fill="#999999">varchar(50) NOT NULL</text>
</g>
<!-- Department&#45;&gt;Employee -->
<g id="edge2" class="edge">
<title>Department:department_id&#45;&gt;Employee:department_id</title>
<path fill="none" stroke="black" d="M487.32,-374.87C507.3,-375.98 527.41,-380.71 546.58,-387.38"/>
<polyline fill="none" stroke="black" points="478.5,-374.62 483,-374.75"/>
<polygon fill="black" stroke="black" points="483.77,-379.27 484.02,-370.28 485.82,-370.33 485.57,-379.32 483.77,-379.27"/>
<polyline fill="none" stroke="black" points="483,-374.75 487.5,-374.88"/>
<polygon fill="black" stroke="black" points="546.55,-387.37 553.61,-394.27 551.09,-389.03 554.68,-390.35 554.68,-390.35 554.68,-390.35 551.09,-389.03 556.39,-386.66 546.55,-387.37"/>
</g>
<!-- DepartmentOccupancy -->
<g id="node13" class="node">
<title>DepartmentOccupancy</title>
<polygon fill="none" stroke="black" points="523.5,-332.5 523.5,-354.25 814.5,-354.25 814.5,-332.5 523.5,-332.5"/>
<text xml:space="preserve" text-anchor="start" x="599.25" y="-338.95" font-family="Helvetica,sans-Serif" font-style="italic" font-size="14.00">DepartmentOccupancy</text>
<polygon fill="none" stroke="black" points="523.5,-304.75 523.5,-332.5 814.5,-332.5 814.5,-304.75 523.5,-304.75"/>
<text xml:space="preserve" text-anchor="start" x="529.5" y="-314.2" font-family="Helvetica,sans-Serif" font-size="14.00">PK department_occupancy_id </text>
<text xml:space="preserve" text-anchor="start" x="714" y="-314.2" font-family="Helvetica,sans-Serif" font-size="14.00" fill="#999999">int() NOT NULL</text>
<polygon fill="none" stroke="black" points="523.5,-277 523.5,-304.75 814.5,-304.75 814.5,-277 523.5,-277"/>
<text xml:space="preserve" text-anchor="start" x="529.5" y="-286.45" font-family="Helvetica,sans-Serif" font-size="14.00">FK department_id </text>
<text xml:space="preserve" text-anchor="start" x="641.25" y="-286.45" font-family="Helvetica,sans-Serif" font-size="14.00" fill="#999999">int()</text>
<polygon fill="none" stroke="black" points="523.5,-249.25 523.5,-277 814.5,-277 814.5,-249.25 523.5,-249.25"/>
<text xml:space="preserve" text-anchor="start" x="529.5" y="-258.7" font-family="Helvetica,sans-Serif" font-size="14.00">occupancy </text>
<text xml:space="preserve" text-anchor="start" x="597.75" y="-258.7" font-family="Helvetica,sans-Serif" font-size="14.00" fill="#999999">int() NOT NULL</text>
<polygon fill="none" stroke="black" points="523.5,-221.5 523.5,-249.25 814.5,-249.25 814.5,-221.5 523.5,-221.5"/>
<text xml:space="preserve" text-anchor="start" x="529.5" y="-230.95" font-family="Helvetica,sans-Serif" font-size="14.00">capacity </text>
<text xml:space="preserve" text-anchor="start" x="582.75" y="-230.95" font-family="Helvetica,sans-Serif" font-size="14.00" fill="#999999">int() NOT NULL</text>
</g>
<!-- Department&#45;&gt;DepartmentOccupancy -->
<g id="edge12" class="edge">
<title>Department:department_id&#45;&gt;DepartmentOccupancy:department_id</title>
<path fill="none" stroke="black" d="M487.28,-373.03C511.97,-362.53 489.14,-303.59 513.36,-292.63"/>
<polyline fill="none" stroke="black" points="478.5,-374.62 482.93,-373.82"/>
<polygon fill="black" stroke="black" points="484.62,-378.09 483.01,-369.23 484.78,-368.91 486.39,-377.76 484.62,-378.09"/>
<polyline fill="none" stroke="black" points="482.93,-373.82 487.35,-373.01"/>
<polygon fill="black" stroke="black" points="513.33,-292.64 522.94,-294.92 518.08,-291.72 521.84,-291 521.84,-291 521.84,-291 518.08,-291.72 521.41,-286.96 513.33,-292.64"/>
</g>
<!-- Person -->
<g id="node3" class="node">
<title>Person</title>
<polygon fill="none" stroke="black" points="251.62,-727.25 251.62,-749 474.38,-749 474.38,-727.25 251.62,-727.25"/>
<text xml:space="preserve" text-anchor="start" x="341.62" y="-733.7" font-family="Helvetica,sans-Serif" font-style="italic" font-size="14.00">Person</text>
<polygon fill="none" stroke="black" points="251.62,-699.5 251.62,-727.25 474.38,-727.25 474.38,-699.5 251.62,-699.5"/>
<text xml:space="preserve" text-anchor="start" x="257.62" y="-708.95" font-family="Helvetica,sans-Serif" font-size="14.00">PK person_id </text>
<text xml:space="preserve" text-anchor="start" x="342.38" y="-708.95" font-family="Helvetica,sans-Serif" font-size="14.00" fill="#999999">int() NOT NULL</text>
<polygon fill="none" stroke="black" points="251.62,-671.75 251.62,-699.5 474.38,-699.5 474.38,-671.75 251.62,-671.75"/>
<text xml:space="preserve" text-anchor="start" x="257.62" y="-681.2" font-family="Helvetica,sans-Serif" font-size="14.00">full_name </text>
<text xml:space="preserve" text-anchor="start" x="320.62" y="-681.2" font-family="Helvetica,sans-Serif" font-size="14.00" fill="#999999">varchar(100) NOT NULL</text>
<polygon fill="none" stroke="black" points="251.62,-644 251.62,-671.75 474.38,-671.75 474.38,-644 251.62,-644"/>
<text xml:space="preserve" text-anchor="start" x="257.62" y="-653.45" font-family="Helvetica,sans-Serif" font-size="14.00">cpf </text>
<text xml:space="preserve" text-anchor="start" x="279.38" y="-653.45" font-family="Helvetica,sans-Serif" font-size="14.00" fill="#999999">varchar(11) NOT NULL</text>
<polygon fill="none" stroke="black" points="251.62,-616.25 251.62,-644 474.38,-644 474.38,-616.25 251.62,-616.25"/>
<text xml:space="preserve" text-anchor="start" x="257.62" y="-625.7" font-family="Helvetica,sans-Serif" font-size="14.00">rg </text>
<text xml:space="preserve" text-anchor="start" x="273.38" y="-625.7" font-family="Helvetica,sans-Serif" font-size="14.00" fill="#999999">varchar(10) NOT NULL</text>
<polygon fill="none" stroke="black" points="251.62,-588.5 251.62,-616.25 474.38,-616.25 474.38,-588.5 251.62,-588.5"/>
<text xml:space="preserve" text-anchor="start" x="257.62" y="-597.95" font-family="Helvetica,sans-Serif" font-size="14.00">date_of_birth </text>
<text xml:space="preserve" text-anchor="start" x="340.12" y="-597.95" font-family="Helvetica,sans-Serif" font-size="14.00" fill="#999999">date() NOT NULL</text>
<polygon fill="none" stroke="black" points="251.62,-560.75 251.62,-588.5 474.38,-588.5 474.38,-560.75 251.62,-560.75"/>
<text xml:space="preserve" text-anchor="start" x="257.62" y="-570.2" font-family="Helvetica,sans-Serif" font-size="14.00">address </text>
<text xml:space="preserve" text-anchor="start" x="309.38" y="-570.2" font-family="Helvetica,sans-Serif" font-size="14.00" fill="#999999">varchar(200) NOT NULL</text>
</g>
<!-- Person&#45;&gt;Employee -->
<g id="edge3" class="edge">
<title>Person:person_id&#45;&gt;Employee:person_id</title>
<path fill="none" stroke="black" d="M484.35,-712.78C576.06,-699.63 414.09,-474.16 505.21,-460.52"/>
<polyline fill="none" stroke="black" points="475.38,-713.38 479.87,-713.08"/>
<polygon fill="black" stroke="black" points="481.06,-717.51 480.46,-708.53 482.26,-708.41 482.86,-717.39 481.06,-717.51"/>
<polyline fill="none" stroke="black" points="479.87,-713.08 484.36,-712.78"/>
<polygon fill="black" stroke="black" points="505.19,-460.52 514.45,-463.94 510.01,-460.19 513.83,-459.92 513.83,-459.92 513.83,-459.92 510.01,-460.19 513.89,-455.86 505.19,-460.52"/>
</g>
<!-- Patient -->
<g id="node5" class="node">
<title>Patient</title>
<polygon fill="none" stroke="black" points="520.88,-1008.5 520.88,-1030.25 817.12,-1030.25 817.12,-1008.5 520.88,-1008.5"/>
<text xml:space="preserve" text-anchor="start" x="648" y="-1014.95" font-family="Helvetica,sans-Serif" font-style="italic" font-size="14.00">Patient</text>
<polygon fill="none" stroke="black" points="520.88,-980.75 520.88,-1008.5 817.12,-1008.5 817.12,-980.75 520.88,-980.75"/>
<text xml:space="preserve" text-anchor="start" x="526.88" y="-990.2" font-family="Helvetica,sans-Serif" font-size="14.00">PK patient_id </text>
<text xml:space="preserve" text-anchor="start" x="610.88" y="-990.2" font-family="Helvetica,sans-Serif" font-size="14.00" fill="#999999">int() NOT NULL</text>
<polygon fill="none" stroke="black" points="520.88,-953 520.88,-980.75 817.12,-980.75 817.12,-953 520.88,-953"/>
<text xml:space="preserve" text-anchor="start" x="526.88" y="-962.45" font-family="Helvetica,sans-Serif" font-size="14.00">FK person_id </text>
<text xml:space="preserve" text-anchor="start" x="610.88" y="-962.45" font-family="Helvetica,sans-Serif" font-size="14.00" fill="#999999">int()</text>
<polygon fill="none" stroke="black" points="520.88,-925.25 520.88,-953 817.12,-953 817.12,-925.25 520.88,-925.25"/>
<text xml:space="preserve" text-anchor="start" x="526.88" y="-934.7" font-family="Helvetica,sans-Serif" font-size="14.00">identification_wristband </text>
<text xml:space="preserve" text-anchor="start" x="670.88" y="-934.7" font-family="Helvetica,sans-Serif" font-size="14.00" fill="#999999">varchar(20) NOT NULL</text>
<polygon fill="none" stroke="black" points="520.88,-897.5 520.88,-925.25 817.12,-925.25 817.12,-897.5 520.88,-897.5"/>
<text xml:space="preserve" text-anchor="start" x="526.88" y="-906.95" font-family="Helvetica,sans-Serif" font-size="14.00">status </text>
<text xml:space="preserve" text-anchor="start" x="566.62" y="-906.95" font-family="Helvetica,sans-Serif" font-size="14.00" fill="#999999">varchar(20) NOT NULL</text>
</g>
<!-- Person&#45;&gt;Patient -->
<g id="edge4" class="edge">
<title>Person:person_id&#45;&gt;Patient:person_id</title>
<path fill="none" stroke="black" d="M483.92,-715.72C522.49,-739.68 472.92,-939.46 511.03,-964.34"/>
<polyline fill="none" stroke="black" points="475.38,-713.38 479.71,-714.57"/>
<polygon fill="black" stroke="black" points="479.39,-719.15 481.77,-710.47 483.51,-710.94 481.12,-719.62 479.39,-719.15"/>
<polyline fill="none" stroke="black" points="479.71,-714.57 484.05,-715.76"/>
<polygon fill="black" stroke="black" points="510.9,-964.3 518.44,-970.68 515.55,-965.63 519.23,-966.69 519.23,-966.69 519.23,-966.69 515.55,-965.63 520.67,-962.89 510.9,-964.3"/>
</g>
<!-- Visitor -->
<g id="node6" class="node">
<title>Visitor</title>
<polygon fill="none" stroke="black" points="536.62,-839.5 536.62,-861.25 801.38,-861.25 801.38,-839.5 536.62,-839.5"/>
<text xml:space="preserve" text-anchor="start" x="650.25" y="-845.95" font-family="Helvetica,sans-Serif" font-style="italic" font-size="14.00">Visitor</text>
<polygon fill="none" stroke="black" points="536.62,-811.75 536.62,-839.5 801.38,-839.5 801.38,-811.75 536.62,-811.75"/>
<text xml:space="preserve" text-anchor="start" x="542.62" y="-821.2" font-family="Helvetica,sans-Serif" font-size="14.00">PK visitor_id </text>
<text xml:space="preserve" text-anchor="start" x="621.38" y="-821.2" font-family="Helvetica,sans-Serif" font-size="14.00" fill="#999999">int() NOT NULL</text>
<polygon fill="none" stroke="black" points="536.62,-784 536.62,-811.75 801.38,-811.75 801.38,-784 536.62,-784"/>
<text xml:space="preserve" text-anchor="start" x="542.62" y="-793.45" font-family="Helvetica,sans-Serif" font-size="14.00">FK person_id </text>
<text xml:space="preserve" text-anchor="start" x="626.62" y="-793.45" font-family="Helvetica,sans-Serif" font-size="14.00" fill="#999999">int()</text>
<polygon fill="none" stroke="black" points="536.62,-756.25 536.62,-784 801.38,-784 801.38,-756.25 536.62,-756.25"/>
<text xml:space="preserve" text-anchor="start" x="542.62" y="-765.7" font-family="Helvetica,sans-Serif" font-size="14.00">type </text>
<text xml:space="preserve" text-anchor="start" x="571.88" y="-765.7" font-family="Helvetica,sans-Serif" font-size="14.00" fill="#999999">varchar(20) NOT NULL</text>
<polygon fill="none" stroke="black" points="536.62,-728.5 536.62,-756.25 801.38,-756.25 801.38,-728.5 536.62,-728.5"/>
<text xml:space="preserve" text-anchor="start" x="542.62" y="-737.95" font-family="Helvetica,sans-Serif" font-size="14.00">identification_card </text>
<text xml:space="preserve" text-anchor="start" x="655.12" y="-737.95" font-family="Helvetica,sans-Serif" font-size="14.00" fill="#999999">varchar(20) NOT NULL</text>
</g>
<!-- Person&#45;&gt;Visitor -->
<g id="edge5" class="edge">
<title>Person:person_id&#45;&gt;Visitor:person_id</title>
<path fill="none" stroke="black" d="M484,-714.57C514.65,-724 496.4,-786.32 526.37,-796.48"/>
<polyline fill="none" stroke="black" points="475.38,-713.38 479.83,-713.99"/>
<polygon fill="black" stroke="black" points="480.11,-718.57 481.34,-709.66 483.12,-709.91 481.89,-718.82 480.11,-718.57"/>
<polyline fill="none" stroke="black" points="479.83,-713.99 484.29,-714.61"/>
<polygon fill="black" stroke="black" points="526.4,-796.48 534.69,-801.83 531.18,-797.2 534.96,-797.78 534.96,-797.78 534.96,-797.78 531.18,-797.2 535.9,-793.82 526.4,-796.48"/>
</g>
<!-- Address -->
<g id="node7" class="node">
<title>Address</title>
<polygon fill="none" stroke="black" points="554.25,-670.5 554.25,-692.25 783.75,-692.25 783.75,-670.5 554.25,-670.5"/>
<text xml:space="preserve" text-anchor="start" x="644.25" y="-676.95" font-family="Helvetica,sans-Serif" font-style="italic" font-size="14.00">Address</text>
<polygon fill="none" stroke="black" points="554.25,-642.75 554.25,-670.5 783.75,-670.5 783.75,-642.75 554.25,-642.75"/>
<text xml:space="preserve" text-anchor="start" x="560.25" y="-652.2" font-family="Helvetica,sans-Serif" font-size="14.00">PK address_id </text>
<text xml:space="preserve" text-anchor="start" x="651.75" y="-652.2" font-family="Helvetica,sans-Serif" font-size="14.00" fill="#999999">int() NOT NULL</text>
<polygon fill="none" stroke="black" points="554.25,-615 554.25,-642.75 783.75,-642.75 783.75,-615 554.25,-615"/>
<text xml:space="preserve" text-anchor="start" x="560.25" y="-624.45" font-family="Helvetica,sans-Serif" font-size="14.00">FK person_id </text>
<text xml:space="preserve" text-anchor="start" x="644.25" y="-624.45" font-family="Helvetica,sans-Serif" font-size="14.00" fill="#999999">int()</text>
<polygon fill="none" stroke="black" points="554.25,-587.25 554.25,-615 783.75,-615 783.75,-587.25 554.25,-587.25"/>
<text xml:space="preserve" text-anchor="start" x="560.25" y="-596.7" font-family="Helvetica,sans-Serif" font-size="14.00">address </text>
<text xml:space="preserve" text-anchor="start" x="612" y="-596.7" font-family="Helvetica,sans-Serif" font-size="14.00" fill="#999999">varchar(200) NOT NULL</text>
<polygon fill="none" stroke="black" points="554.25,-559.5 554.25,-587.25 783.75,-587.25 783.75,-559.5 554.25,-559.5"/>
<text xml:space="preserve" text-anchor="start" x="560.25" y="-568.95" font-family="Helvetica,sans-Serif" font-size="14.00">last_update </text>
<text xml:space="preserve" text-anchor="start" x="633.75" y="-568.95" font-family="Helvetica,sans-Serif" font-size="14.00" fill="#999999">timestamp() NOT NULL</text>
</g>
<!-- Person&#45;&gt;Address -->
<g id="edge6" class="edge">
<title>Person:person_id&#45;&gt;Address:person_id</title>
<path fill="none" stroke="black" d="M484.1,-712.43C520.92,-703.8 507.66,-639 544.09,-629.93"/>
<polyline fill="none" stroke="black" points="475.38,-713.38 479.85,-712.89"/>
<polygon fill="black" stroke="black" points="481.23,-717.27 480.26,-708.32 482.05,-708.12 483.02,-717.07 481.23,-717.27"/>
<polyline fill="none" stroke="black" points="479.85,-712.89 484.32,-712.4"/>
<polygon fill="black" stroke="black" points="543.98,-629.94 553.38,-632.94 548.78,-629.39 552.59,-628.95 552.59,-628.95 552.59,-628.95 548.78,-629.39 552.46,-624.89 543.98,-629.94"/>
</g>
<!-- IdentificationCard -->
<g id="node8" class="node">
<title>IdentificationCard</title>
<polygon fill="none" stroke="black" points="868.88,-894.38 868.88,-916.12 1127.62,-916.12 1127.62,-894.38 868.88,-894.38"/>
<text xml:space="preserve" text-anchor="start" x="945.75" y="-900.83" font-family="Helvetica,sans-Serif" font-style="italic" font-size="14.00">IdentificationCard</text>
<polygon fill="none" stroke="black" points="868.88,-866.62 868.88,-894.38 1127.62,-894.38 1127.62,-866.62 868.88,-866.62"/>
<text xml:space="preserve" text-anchor="start" x="874.88" y="-876.08" font-family="Helvetica,sans-Serif" font-size="14.00">PK identification_card_id </text>
<text xml:space="preserve" text-anchor="start" x="1027.12" y="-876.08" font-family="Helvetica,sans-Serif" font-size="14.00" fill="#999999">int() NOT NULL</text>
<polygon fill="none" stroke="black" points="868.88,-838.88 868.88,-866.62 1127.62,-866.62 1127.62,-838.88 868.88,-838.88"/>
<text xml:space="preserve" text-anchor="start" x="874.88" y="-848.33" font-family="Helvetica,sans-Serif" font-size="14.00">FK employee_id </text>
<text xml:space="preserve" text-anchor="start" x="976.88" y="-848.33" font-family="Helvetica,sans-Serif" font-size="14.00" fill="#999999">int()</text>
<polygon fill="none" stroke="black" points="868.88,-811.12 868.88,-838.88 1127.62,-838.88 1127.62,-811.12 868.88,-811.12"/>
<text xml:space="preserve" text-anchor="start" x="874.88" y="-820.58" font-family="Helvetica,sans-Serif" font-size="14.00">issue_date </text>
<text xml:space="preserve" text-anchor="start" x="943.88" y="-820.58" font-family="Helvetica,sans-Serif" font-size="14.00" fill="#999999">date() NOT NULL</text>
<polygon fill="none" stroke="black" points="868.88,-783.38 868.88,-811.12 1127.62,-811.12 1127.62,-783.38 868.88,-783.38"/>
<text xml:space="preserve" text-anchor="start" x="874.88" y="-792.83" font-family="Helvetica,sans-Serif" font-size="14.00">expiry_date </text>
<text xml:space="preserve" text-anchor="start" x="948.38" y="-792.83" font-family="Helvetica,sans-Serif" font-size="14.00" fill="#999999">date() NOT NULL</text>
<polygon fill="none" stroke="black" points="868.88,-755.62 868.88,-783.38 1127.62,-783.38 1127.62,-755.62 868.88,-755.62"/>
<text xml:space="preserve" text-anchor="start" x="874.88" y="-765.08" font-family="Helvetica,sans-Serif" font-size="14.00">access_level </text>
<text xml:space="preserve" text-anchor="start" x="955.88" y="-765.08" font-family="Helvetica,sans-Serif" font-size="14.00" fill="#999999">varchar(10) NOT NULL</text>
</g>
<!-- Employee&#45;&gt;IdentificationCard -->
<g id="edge7" class="edge">
<title>Employee:employee_id&#45;&gt;IdentificationCard:employee_id</title>
<path fill="none" stroke="black" d="M832.18,-489.25C893.49,-514.46 798.2,-824.35 858.75,-850.93"/>
<polyline fill="none" stroke="black" points="823.5,-487.62 827.92,-488.45"/>
<polygon fill="black" stroke="black" points="827.98,-493.04 829.64,-484.2 831.41,-484.53 829.75,-493.37 827.98,-493.04"/>
<polyline fill="none" stroke="black" points="827.92,-488.45 832.35,-489.28"/>
<polygon fill="black" stroke="black" points="858.72,-850.93 866.76,-856.66 863.46,-851.87 867.22,-852.62 867.22,-852.62 867.22,-852.62 863.46,-851.87 868.34,-848.71 858.72,-850.93"/>
</g>
<!-- EmployeeSchedule -->
<g id="node9" class="node">
<title>EmployeeSchedule</title>
<polygon fill="none" stroke="black" points="862.88,-697.5 862.88,-719.25 1133.62,-719.25 1133.62,-697.5 862.88,-697.5"/>
<text xml:space="preserve" text-anchor="start" x="939.75" y="-703.95" font-family="Helvetica,sans-Serif" font-style="italic" font-size="14.00">EmployeeSchedule</text>
<polygon fill="none" stroke="black" points="862.88,-669.75 862.88,-697.5 1133.62,-697.5 1133.62,-669.75 862.88,-669.75"/>
<text xml:space="preserve" text-anchor="start" x="868.88" y="-679.2" font-family="Helvetica,sans-Serif" font-size="14.00">PK employee_schedule_id </text>
<text xml:space="preserve" text-anchor="start" x="1033.12" y="-679.2" font-family="Helvetica,sans-Serif" font-size="14.00" fill="#999999">int() NOT NULL</text>
<polygon fill="none" stroke="black" points="862.88,-642 862.88,-669.75 1133.62,-669.75 1133.62,-642 862.88,-642"/>
<text xml:space="preserve" text-anchor="start" x="868.88" y="-651.45" font-family="Helvetica,sans-Serif" font-size="14.00">FK employee_id </text>
<text xml:space="preserve" text-anchor="start" x="970.88" y="-651.45" font-family="Helvetica,sans-Serif" font-size="14.00" fill="#999999">int()</text>
<polygon fill="none" stroke="black" points="862.88,-614.25 862.88,-642 1133.62,-642 1133.62,-614.25 862.88,-614.25"/>
<text xml:space="preserve" text-anchor="start" x="868.88" y="-623.7" font-family="Helvetica,sans-Serif" font-size="14.00">work_pattern </text>
<text xml:space="preserve" text-anchor="start" x="950.62" y="-623.7" font-family="Helvetica,sans-Serif" font-size="14.00" fill="#999999">varchar(20) NOT NULL</text>
<polygon fill="none" stroke="black" points="862.88,-586.5 862.88,-614.25 1133.62,-614.25 1133.62,-586.5 862.88,-586.5"/>
<text xml:space="preserve" text-anchor="start" x="868.88" y="-595.95" font-family="Helvetica,sans-Serif" font-size="14.00">schedule </text>
<text xml:space="preserve" text-anchor="start" x="926.62" y="-595.95" font-family="Helvetica,sans-Serif" font-size="14.00" fill="#999999">varchar(50) NOT NULL</text>
</g>
<!-- Employee&#45;&gt;EmployeeSchedule -->
<g id="edge8" class="edge">
<title>Employee:employee_id&#45;&gt;EmployeeSchedule:employee_id</title>
<path fill="none" stroke="black" d="M832.36,-488.53C887.93,-501.15 797.7,-641.74 852.68,-654.89"/>
<polyline fill="none" stroke="black" points="823.5,-487.62 827.98,-488.08"/>
<polygon fill="black" stroke="black" points="828.41,-492.65 829.33,-483.7 831.12,-483.88 830.21,-492.83 828.41,-492.65"/>
<polyline fill="none" stroke="black" points="827.98,-488.08 832.45,-488.54"/>
<polygon fill="black" stroke="black" points="852.59,-654.88 861.11,-659.87 857.4,-655.4 861.21,-655.8 861.21,-655.8 861.21,-655.8 857.4,-655.4 861.97,-651.81 852.59,-654.88"/>
</g>
<!-- TimeClockRecord -->
<g id="node10" class="node">
<title>TimeClockRecord</title>
<polygon fill="none" stroke="black" points="868.12,-528.5 868.12,-550.25 1128.38,-550.25 1128.38,-528.5 868.12,-528.5"/>
<text xml:space="preserve" text-anchor="start" x="944.25" y="-534.95" font-family="Helvetica,sans-Serif" font-style="italic" font-size="14.00">TimeClockRecord</text>
<polygon fill="none" stroke="black" points="868.12,-500.75 868.12,-528.5 1128.38,-528.5 1128.38,-500.75 868.12,-500.75"/>
<text xml:space="preserve" text-anchor="start" x="874.12" y="-510.2" font-family="Helvetica,sans-Serif" font-size="14.00">PK time_clock_record_id </text>
<text xml:space="preserve" text-anchor="start" x="1027.88" y="-510.2" font-family="Helvetica,sans-Serif" font-size="14.00" fill="#999999">int() NOT NULL</text>
<polygon fill="none" stroke="black" points="868.12,-473 868.12,-500.75 1128.38,-500.75 1128.38,-473 868.12,-473"/>
<text xml:space="preserve" text-anchor="start" x="874.12" y="-482.45" font-family="Helvetica,sans-Serif" font-size="14.00">FK employee_id </text>
<text xml:space="preserve" text-anchor="start" x="976.12" y="-482.45" font-family="Helvetica,sans-Serif" font-size="14.00" fill="#999999">int()</text>
<polygon fill="none" stroke="black" points="868.12,-445.25 868.12,-473 1128.38,-473 1128.38,-445.25 868.12,-445.25"/>
<text xml:space="preserve" text-anchor="start" x="874.12" y="-454.7" font-family="Helvetica,sans-Serif" font-size="14.00">clock_in </text>
<text xml:space="preserve" text-anchor="start" x="926.62" y="-454.7" font-family="Helvetica,sans-Serif" font-size="14.00" fill="#999999">timestamp() NOT NULL</text>
<polygon fill="none" stroke="black" points="868.12,-417.5 868.12,-445.25 1128.38,-445.25 1128.38,-417.5 868.12,-417.5"/>
<text xml:space="preserve" text-anchor="start" x="874.12" y="-426.95" font-family="Helvetica,sans-Serif" font-size="14.00">clock_out </text>
<text xml:space="preserve" text-anchor="start" x="934.88" y="-426.95" font-family="Helvetica,sans-Serif" font-size="14.00" fill="#999999">timestamp() NOT NULL</text>
</g>
<!-- Employee&#45;&gt;TimeClockRecord -->
<g id="edge9" class="edge">
<title>Employee:employee_id&#45;&gt;TimeClockRecord:employee_id</title>
<path fill="none" stroke="black" d="M832.36,-487.57C842.22,-487.43 848.09,-487.08 857.85,-486.94"/>
<polyline fill="none" stroke="black" points="823.5,-487.62 828,-487.6"/>
<polygon fill="black" stroke="black" points="828.93,-492.09 828.87,-483.09 830.67,-483.08 830.73,-492.08 828.93,-492.09"/>
<polyline fill="none" stroke="black" points="828,-487.6 832.5,-487.57"/>
<polygon fill="black" stroke="black" points="857.79,-486.94 866.82,-490.93 862.63,-486.91 866.46,-486.88 866.46,-486.88 866.46,-486.88 862.63,-486.91 866.76,-482.83 857.79,-486.94"/>
</g>
<!-- WorkShift -->
<g id="node11" class="node">
<title>WorkShift</title>
<polygon fill="none" stroke="black" points="892.88,-359.5 892.88,-381.25 1103.62,-381.25 1103.62,-359.5 892.88,-359.5"/>
<text xml:space="preserve" text-anchor="start" x="968.62" y="-365.95" font-family="Helvetica,sans-Serif" font-style="italic" font-size="14.00">WorkShift</text>
<polygon fill="none" stroke="black" points="892.88,-331.75 892.88,-359.5 1103.62,-359.5 1103.62,-331.75 892.88,-331.75"/>
<text xml:space="preserve" text-anchor="start" x="898.88" y="-341.2" font-family="Helvetica,sans-Serif" font-size="14.00">PK work_shift_id </text>
<text xml:space="preserve" text-anchor="start" x="1003.12" y="-341.2" font-family="Helvetica,sans-Serif" font-size="14.00" fill="#999999">int() NOT NULL</text>
<polygon fill="none" stroke="black" points="892.88,-304 892.88,-331.75 1103.62,-331.75 1103.62,-304 892.88,-304"/>
<text xml:space="preserve" text-anchor="start" x="898.88" y="-313.45" font-family="Helvetica,sans-Serif" font-size="14.00">FK employee_id </text>
<text xml:space="preserve" text-anchor="start" x="1000.88" y="-313.45" font-family="Helvetica,sans-Serif" font-size="14.00" fill="#999999">int()</text>
<polygon fill="none" stroke="black" points="892.88,-276.25 892.88,-304 1103.62,-304 1103.62,-276.25 892.88,-276.25"/>
<text xml:space="preserve" text-anchor="start" x="898.88" y="-285.7" font-family="Helvetica,sans-Serif" font-size="14.00">start_time </text>
<text xml:space="preserve" text-anchor="start" x="962.62" y="-285.7" font-family="Helvetica,sans-Serif" font-size="14.00" fill="#999999">time() NOT NULL</text>
<polygon fill="none" stroke="black" points="892.88,-248.5 892.88,-276.25 1103.62,-276.25 1103.62,-248.5 892.88,-248.5"/>
<text xml:space="preserve" text-anchor="start" x="898.88" y="-257.95" font-family="Helvetica,sans-Serif" font-size="14.00">end_time </text>
<text xml:space="preserve" text-anchor="start" x="958.88" y="-257.95" font-family="Helvetica,sans-Serif" font-size="14.00" fill="#999999">time() NOT NULL</text>
</g>
<!-- Employee&#45;&gt;WorkShift -->
<g id="edge10" class="edge">
<title>Employee:employee_id&#45;&gt;WorkShift:employee_id</title>
<path fill="none" stroke="black" d="M832.25,-486.87C894.92,-475.15 820.66,-331.08 882.67,-318.72"/>
<polyline fill="none" stroke="black" points="823.5,-487.62 827.98,-487.24"/>
<polygon fill="black" stroke="black" points="829.27,-491.64 828.49,-482.68 830.29,-482.52 831.06,-491.49 829.27,-491.64"/>
<polyline fill="none" stroke="black" points="827.98,-487.24 832.47,-486.85"/>
<polygon fill="black" stroke="black" points="882.58,-318.73 891.91,-321.94 887.39,-318.29 891.21,-317.94 891.21,-317.94 891.21,-317.94 887.39,-318.29 891.17,-313.87 882.58,-318.73"/>
</g>
<!-- AvailabilityException -->
<g id="node12" class="node">
<title>AvailabilityException</title>
<polygon fill="none" stroke="black" points="859.5,-190.25 859.5,-212 1137,-212 1137,-190.25 859.5,-190.25"/>
<text xml:space="preserve" text-anchor="start" x="936.75" y="-196.7" font-family="Helvetica,sans-Serif" font-style="italic" font-size="14.00">AvailabilityException</text>
<polygon fill="none" stroke="black" points="859.5,-162.5 859.5,-190.25 1137,-190.25 1137,-162.5 859.5,-162.5"/>
<text xml:space="preserve" text-anchor="start" x="865.5" y="-171.95" font-family="Helvetica,sans-Serif" font-size="14.00">PK availability_exception_id </text>
<text xml:space="preserve" text-anchor="start" x="1036.5" y="-171.95" font-family="Helvetica,sans-Serif" font-size="14.00" fill="#999999">int() NOT NULL</text>
<polygon fill="none" stroke="black" points="859.5,-134.75 859.5,-162.5 1137,-162.5 1137,-134.75 859.5,-134.75"/>
<text xml:space="preserve" text-anchor="start" x="865.5" y="-144.2" font-family="Helvetica,sans-Serif" font-size="14.00">FK employee_id </text>
<text xml:space="preserve" text-anchor="start" x="967.5" y="-144.2" font-family="Helvetica,sans-Serif" font-size="14.00" fill="#999999">int()</text>
<polygon fill="none" stroke="black" points="859.5,-107 859.5,-134.75 1137,-134.75 1137,-107 859.5,-107"/>
<text xml:space="preserve" text-anchor="start" x="865.5" y="-116.45" font-family="Helvetica,sans-Serif" font-size="14.00">start_date </text>
<text xml:space="preserve" text-anchor="start" x="929.25" y="-116.45" font-family="Helvetica,sans-Serif" font-size="14.00" fill="#999999">date() NOT NULL</text>
<polygon fill="none" stroke="black" points="859.5,-79.25 859.5,-107 1137,-107 1137,-79.25 859.5,-79.25"/>
<text xml:space="preserve" text-anchor="start" x="865.5" y="-88.7" font-family="Helvetica,sans-Serif" font-size="14.00">end_date </text>
<text xml:space="preserve" text-anchor="start" x="925.5" y="-88.7" font-family="Helvetica,sans-Serif" font-size="14.00" fill="#999999">date() NOT NULL</text>
<polygon fill="none" stroke="black" points="859.5,-51.5 859.5,-79.25 1137,-79.25 1137,-51.5 859.5,-51.5"/>
<text xml:space="preserve" text-anchor="start" x="865.5" y="-60.95" font-family="Helvetica,sans-Serif" font-size="14.00">type </text>
<text xml:space="preserve" text-anchor="start" x="894.75" y="-60.95" font-family="Helvetica,sans-Serif" font-size="14.00" fill="#999999">varchar(20) NOT NULL</text>
<polygon fill="none" stroke="black" points="859.5,-23.75 859.5,-51.5 1137,-51.5 1137,-23.75 859.5,-23.75"/>
<text xml:space="preserve" text-anchor="start" x="865.5" y="-33.2" font-family="Helvetica,sans-Serif" font-size="14.00">note </text>
<text xml:space="preserve" text-anchor="start" x="895.5" y="-33.2" font-family="Helvetica,sans-Serif" font-size="14.00" fill="#999999">text()</text>
</g>
<!-- Employee&#45;&gt;AvailabilityException -->
<g id="edge11" class="edge">
<title>Employee:employee_id&#45;&gt;AvailabilityException:employee_id</title>
<path fill="none" stroke="black" d="M832.24,-485.8C886.99,-460.37 796.27,-177.11 850.42,-150.61"/>
<polyline fill="none" stroke="black" points="823.5,-487.62 827.91,-486.71"/>
<polygon fill="black" stroke="black" points="829.71,-490.93 827.87,-482.12 829.63,-481.75 831.47,-490.56 829.71,-490.93"/>
<polyline fill="none" stroke="black" points="827.91,-486.71 832.31,-485.79"/>
<polygon fill="black" stroke="black" points="850.38,-150.62 860.04,-152.65 855.1,-149.59 858.85,-148.77 858.85,-148.77 858.85,-148.77 855.1,-149.59 858.31,-144.74 850.38,-150.62"/>
</g>
</g>
</svg>
